# xmcd
#
# Track frame offsets:
# 150
# 21418
# 35282
# 47280
# 64585
# 82960
# 93871
# 108089
# 120488
# 130912
# 149654
#
# Disc length: 2241 seconds
#
#
# Revision: 0
# Processed by: cddbd v1.5.2PL0 Copyright (c) Steve Scherf et al.
# Submitted via: FreeRIP 2.96 
#
DISCID=8508bf0b
DTITLE=Joey Holiday - In It For The Long Haul
DYEAR=1998
DGENRE=Country
TTITLE0=Big Joe The Phantom and Red Sovine
TTITLE1=Can't Get NO Freight
TTITLE2=Truckers and Jesus
TTITLE3=It's Rainin'
TTITLE4=Hard Way To Make An Easy Livin'
TTITLE5=In It For The Long Haul
TTITLE6=I Will Love You More
TTITLE7=Breaker,Breaker,Breaker
TTITLE8=Where's The Pothole Patrol
TTITLE9=Truckin' USA
TTITLE10=Washin' Machine
EXTD=
EXTT0=
EXTT1=
EXTT2=
EXTT3=
EXTT4=
EXTT5=
EXTT6=
EXTT7=
EXTT8=
EXTT9=
EXTT10=
PLAYORDER=
